<svg xmlns="http://www.w3.org/2000/svg" viewBox="0 0 338.54 171.39"><defs><style>.cls-1,.cls-2{fill:#3e6bb4;}.cls-2{font-size:70.09px;font-family:Poppins-Bold, Poppins;font-weight:700;letter-spacing:-0.01em;}</style></defs><g id="Layer_2" data-name="Layer 2"><g id="text"><rect class="cls-1" y="92.96" width="107.72" height="7.26" rx="0.59"/><rect class="cls-1" y="103.93" width="107.72" height="7.26" rx="0.59"/><rect class="cls-1" y="114.9" width="107.72" height="7.26" rx="0.59"/><rect class="cls-1" y="125.87" width="77.86" height="7.26" rx="0.59"/><path class="cls-1" d="M19.62,36.43a38.65,38.65,0,0,0-2.39,5.09A34.67,34.67,0,0,0,16,45.4H29.53c.15-1.19.31-2.37.53-3.54a20.67,20.67,0,0,1,1.76-5.43Zm11,30a33.11,33.11,0,0,1-1.42-6.66H15.84a37.92,37.92,0,0,0,1.95,6.32A22.84,22.84,0,0,0,19,68.71h12.5C31.2,68,30.92,67.2,30.65,66.41ZM64.84,48.09a7,7,0,0,1-.17,4.09q-.78,2.46-1.69,4.88H74.12q1.48-4.48,2.93-9Zm19-23.4c-3,0-6,0-9,0a5.1,5.1,0,0,0-1.18.07c-.48.11-.59.44-.86,1.34q-1.17,3.81-2.32,7.62H81.66c.44-1.38.89-2.76,1.33-4.14.51-1.59,1-3.19,1.53-4.82a.14.14,0,0,0,0-.06ZM69.65,36.43c-.21.67-.41,1.33-.61,2-.42,1.38-.85,2.76-1.3,4.22-.13-.16-.18-.21-.22-.27-.13-.26-.26-.51-.38-.77a57.69,57.69,0,0,0-2.82-5.18c-.56-.91-1.15-1.81-1.79-2.69a36.58,36.58,0,0,0-3.64-4.29,22.53,22.53,0,0,0-6.4-4.67,18.13,18.13,0,0,0-4.3-1.45,25.9,25.9,0,0,0-10.63.36,35.88,35.88,0,0,0-4,1.09,23.47,23.47,0,0,0-10.21,6.49,27.22,27.22,0,0,0-2,2.47H33.43a18.81,18.81,0,0,1,2-2.28,14,14,0,0,1,8.73-3.95,13.76,13.76,0,0,1,8.26,2.11,19.38,19.38,0,0,1,4.79,4.12,33.35,33.35,0,0,1,2,2.69l.46.68a43.84,43.84,0,0,1,4.18,8.29H77.92c1-3,1.92-6,2.88-9Zm4.88,30.13a15.73,15.73,0,0,1-1.08-6.81H61.92q-1.89,4.56-4.23,9h11.1l.38-.56c.24-.34.44-.72.73-1.19.17.63.31,1.2.46,1.75h5.07A17.46,17.46,0,0,1,74.53,66.56Zm19.35,0H91.72c-.14.42-.24.8-.4,1.17l-.42,1a17.6,17.6,0,0,1-1.22,2.69,1.92,1.92,0,0,1-.18.31c-2.1,3.23-8.34,4.58-11.72.58-.25-.29-.48-.59-.7-.89h-5.9a18.86,18.86,0,0,0,4.43,7.35,10.68,10.68,0,0,0,2,1.62,9.89,9.89,0,0,0,13.23-2.63,16.53,16.53,0,0,0,2.78-6.34c.08-.39.16-.79.22-1.2s.14-1,.2-1.49c.09-.7.15-1.41.24-2.12A3.29,3.29,0,0,0,93.88,66.52ZM56.07,71.4a16.19,16.19,0,0,1-5.53,4.81,12.83,12.83,0,0,1-14-1.06A15.07,15.07,0,0,1,33,71.4H20.74a24.49,24.49,0,0,0,11.84,8.53l1.31.44a36.13,36.13,0,0,0,16.2,1,31.9,31.9,0,0,0,4.63-1A22.3,22.3,0,0,0,65.2,73.79,23.43,23.43,0,0,0,67,71.4ZM29,52.73l-.23,0c.19-1.54.33-3.08.5-4.62H15.46a31,31,0,0,0-.09,9H29C28.94,55.62,28.93,54.18,29,52.73Z"/><text class="cls-2" transform="translate(121.41 59.75)">Alpha<tspan x="0" y="69.17">Drafts</tspan></text></g></g></svg>